<?xml version="1.0" encoding="UTF-8"?>
<svg id="uuid-49af1431-adc5-44ba-b4df-36a2380ff973" data-name="デザイン" xmlns="http://www.w3.org/2000/svg" viewBox="0 0 200 52">
  <g>
    <path d="M78.08,35.8c-.61,0-1.12.27-1.44.71-.3-.46-.79-.71-1.41-.71-.58,0-.96.24-1.16.53v-.44h-1.04v4.94h1.06v-2.98c0-.69.39-1.11.93-1.11.5,0,.87.28.87,1.12v2.97h1.05v-3.03c.02-.66.4-1.06.92-1.06s.88.31.88,1.12v2.97h1.06v-3.09c0-1.28-.64-1.94-1.71-1.94Z"/>
    <rect x="83.24" y="35.89" width="1.06" height="4.94"/>
    <rect x="83.19" y="34.02" width="1.16" height="1.08"/>
    <path d="M90.01,35.8c-.65,0-1.01.24-1.23.53v-.44h-1.04v4.94h1.06v-2.98c0-.66.37-1.11,1.02-1.11.54,0,.94.25.94,1.12v2.97h1.05v-3.09c0-1.42-.78-1.94-1.8-1.94Z"/>
    <path d="M97.38,35.8c-.65,0-1.01.24-1.23.53v-.44h-1.04v4.94h1.06v-2.98c0-.66.37-1.11,1.02-1.11.54,0,.94.25.94,1.12v2.97h1.05v-3.09c0-1.42-.78-1.94-1.8-1.94Z"/>
    <path d="M104.24,35.8c-.98,0-1.51.24-1.87.82l.76.53c.24-.39.5-.44,1.04-.44.74,0,.98.17.98.79v.41h-1.07c-1.06,0-1.84.4-1.84,1.46,0,.99.67,1.54,1.76,1.54.6,0,.91-.16,1.15-.54v.45h1.04v-3.32c0-1.31-.68-1.71-1.95-1.71ZM105.15,38.97c0,.86-.39,1.06-1.03,1.06-.5,0-.84-.19-.84-.64s.26-.65.88-.65h.99v.24Z"/>
    <path d="M116.39,35.8c-.65,0-1.01.24-1.23.53v-.44h-1.04v4.94h1.06v-2.98c0-.66.37-1.11,1.02-1.11.54,0,.94.25.94,1.12v2.97h1.05v-3.09c0-1.42-.78-1.94-1.8-1.94Z"/>
    <path d="M123.39,35.8c-1.33,0-2.1.79-2.1,2.24v.62c0,1.36.72,2.25,2.1,2.25,1.45,0,2.1-.94,2.1-2.25v-.62c0-1.45-.76-2.24-2.1-2.24ZM124.44,38.64c0,.77-.3,1.37-1.05,1.37-.8,0-1.06-.6-1.06-1.37v-.57c0-.85.35-1.34,1.06-1.34s1.05.48,1.05,1.34v.57Z"/>
    <path d="M135.05,37.86c-.57-.07-.94-.2-.94-.61,0-.36.33-.5.77-.5.59,0,.84.14,1.08.44l.78-.56c-.39-.61-1.03-.82-1.84-.82-1.21,0-1.85.59-1.85,1.47,0,1.04.79,1.43,1.73,1.55.77.1,1.03.22,1.03.62,0,.35-.32.54-.86.54-.65,0-.95-.16-1.18-.46l-.8.57c.4.54.98.82,1.99.82,1.27,0,1.9-.59,1.9-1.5,0-1.05-.71-1.43-1.81-1.56Z"/>
    <path d="M142.26,35.8c-.64,0-1,.22-1.21.51v-2.3h-1.06v6.82h1.06v-2.98c0-.66.37-1.11,1.02-1.11.54,0,.94.25.94,1.12v2.97h1.05v-3.09c0-1.42-.78-1.94-1.8-1.94Z"/>
    <path d="M149.11,35.8c-.98,0-1.51.24-1.87.82l.76.53c.24-.39.5-.44,1.04-.44.74,0,.98.17.98.79v.41h-1.07c-1.06,0-1.84.4-1.84,1.46,0,.99.67,1.54,1.76,1.54.6,0,.91-.16,1.15-.54v.45h1.04v-3.32c0-1.31-.68-1.71-1.95-1.71ZM150.02,38.97c0,.86-.39,1.06-1.03,1.06-.5,0-.84-.19-.84-.64s.26-.65.88-.65h.99v.24Z"/>
    <path d="M156.19,37.86c-.57-.07-.94-.2-.94-.61,0-.36.33-.5.77-.5.59,0,.84.14,1.08.44l.78-.56c-.39-.61-1.03-.82-1.84-.82-1.21,0-1.85.59-1.85,1.47,0,1.04.79,1.43,1.73,1.55.77.1,1.03.22,1.03.62,0,.35-.32.54-.86.54-.65,0-.95-.16-1.18-.46l-.8.57c.41.54.98.82,1.99.82,1.27,0,1.9-.59,1.9-1.5,0-1.05-.71-1.43-1.81-1.56Z"/>
    <path d="M163.39,35.8c-.64,0-1,.22-1.21.51v-2.3h-1.06v6.82h1.06v-2.98c0-.66.37-1.11,1.02-1.11.54,0,.94.25.94,1.12v2.97h1.05v-3.09c0-1.42-.78-1.94-1.8-1.94Z"/>
    <path d="M170.39,35.8c-1.33,0-2.1.79-2.1,2.24v.62c0,1.36.72,2.25,2.1,2.25,1.45,0,2.1-.94,2.1-2.25v-.62c0-1.45-.76-2.24-2.1-2.24ZM171.44,38.64c0,.77-.3,1.37-1.05,1.37-.8,0-1.06-.6-1.06-1.37v-.57c0-.85.35-1.34,1.06-1.34s1.05.48,1.05,1.34v.57Z"/>
    <polygon points="179.58 35.89 178.29 35.89 176.64 37.82 176.64 34.02 175.58 34.02 175.58 40.83 176.64 40.83 176.64 39.21 176.97 38.84 178.6 40.83 179.88 40.83 177.7 38.02 179.58 35.89"/>
    <path d="M185.66,38.88c0,.68-.36,1.12-1.01,1.12-.55,0-.95-.25-.95-1.13v-2.97h-1.06v3.08c0,1.42.79,1.95,1.81,1.95.69,0,.99-.18,1.22-.53v.44h1.04v-4.94h-1.05v2.98Z"/>
    <path d="M82,22c.19-.96.31-1.98.42-3.06-.77-.5-2.14-.98-3.33-1.1.04.75.02,1.96-.04,2.35l-.06.42c-1.15-.46-2.35-.87-3.6-1.14,1-1.96,1.89-3.56,2.81-4.85-.42-.6-1.31-1.6-1.94-2.02-1.96.4-5.56.71-6.83.71-.56,0-.83-.02-1.37-.04.02.94.42,2.64.83,3.37,1.67-.19,3.62-.46,4.68-.65-.46.94-1,2.04-1.54,3.1-4.64.02-7.28,2.77-7.28,5.91,0,2.14,1.48,3.83,3.52,3.83,1.85,0,2.73-.87,3.45-2.19.58-1.06,1.33-2.56,2.19-4.27,1.56.29,2.98.83,4.25,1.48-.83,2-2.39,3.68-5.68,4.54.65,1.1,1.85,2.23,2.66,2.71,2.96-1.25,4.72-3.08,5.81-5.54.52.37.98.75,1.42,1.08.71-.98,1.21-2.68,1.31-3.68-.5-.29-1.06-.62-1.67-.96ZM69.06,24.77c-.27.42-.44.5-.75.5-.25,0-.56-.25-.56-.75,0-.92.85-1.96,2.66-2.27-.46.92-.98,1.94-1.35,2.52Z"/>
    <path d="M103.49,21.94c-.52,2.85-1.5,4.93-2.93,4.93-.52,0-.85-.29-.85-.94,0-.85.29-1.98.29-2.98,0-2.06-1.33-3.18-3.06-3.18-1,0-1.58.21-2.29.62,1.25-2.19,2.91-4.66,4.1-6.31-.77-.67-2.52-1.62-3.6-1.94-.46,1.06-.92,1.87-1.23,2.46-1.12,2.04-5.31,9.95-6.87,14.21.85.67,2.89,1.48,3.6,1.64.25-1.17.65-2.54,1.23-3.89.77-1.73,2.02-3.75,3.56-3.75.69,0,1.12.35,1.12.96,0,1.64-.29,2.5-.29,3.75,0,1.44,1.19,2.93,3.58,2.93,3.54,0,5.6-2.39,6.85-6.39-.62-.83-2.04-1.81-3.21-2.14Z"/>
    <path d="M124.74,21.57c0-.94-.06-1.87.06-3.06-.79-.12-2.33-.17-3.37.08-.04,1.14.04,3.04.1,4.66-.25-.02-.52-.02-.79-.02-3.31,0-5.1,1.81-5.1,3.58,0,2.56,2.14,4.04,5.06,4.04s4.18-1.35,4.27-3.45c.94.56,1.79,1.27,2.5,2.06.83-.62,1.5-2.35,1.56-3.35-1.14-.81-2.54-1.62-4.2-2.18-.04-.94-.08-1.81-.08-2.35ZM120.24,27.79c-.83,0-1.44-.4-1.44-.92s.54-.83,1.58-.83c.42,0,.81.04,1.23.1,0,1-.1,1.64-1.37,1.64Z"/>
    <path d="M122.76,17.13c1.43.19,4,.92,5.7,1.9.46-.89.84-2.22.84-3.21-1.22-.63-4.1-1.39-5.72-1.59-.36.67-.76,2.05-.82,2.9Z"/>
    <path d="M121.57,16.59c.08-.83-.08-2.37-.44-3.04-.98.37-1.87.65-2.71.83.15-.69.27-1.33.37-1.91-.96-.42-2.27-.73-3.56-.85-.04.73-.15,1.5-.25,2.25-.04.31-.08.62-.17.98-.56.02-1.12.02-1.73.02s-1.69-.06-2.52-.23c.02,1.06.25,2.52.65,3.31.89.04,1.81.02,2.66,0-.85,2.25-2.27,5.22-3.83,7.35.65.67,2.29,1.48,3.23,1.75,1.39-2.06,3.25-6.37,4.25-9.45,1.73-.25,3.16-.62,4.04-1Z"/>
    <path d="M140.61,14.74c-4.51,0-7.84,3.08-7.84,7.33,0,3.05,1.85,5.43,3.73,5.43,2.4,0,3.68-2.53,4.46-5.98.32-1.38.5-2.96.6-4.15,1.93.32,3.26,1.7,3.26,3.96,0,2.4-1.33,3.75-3.16,4.11-.5.1-1.08.2-1.67.22.23.83,1.02,2.23,1.57,2.8,4.21-.65,6.21-3.4,6.21-7.11,0-4.08-3.13-6.61-7.16-6.61ZM138.27,20.95c-.42,1.83-.97,3.23-1.7,3.23-.47,0-1.03-.77-1.03-2.3s.98-3.6,3.2-4.31c-.07,1.17-.25,2.38-.47,3.38Z"/>
    <path d="M158.06,21c.98-1.41,2.71-4.77,2.77-4.93l-1.96-1.08-.46.1h-.73v-3.81h-3v3.81h-2.85v2.73h4.97c-1.31,2.41-3.39,4.58-5.66,5.79.46.58,1.17,2.08,1.41,2.89.73-.46,1.44-1,2.12-1.6v6.16h3v-7.18c.62.65,1.25,1.31,1.67,1.85l1.77-2.48c-.46-.37-2.04-1.56-3.06-2.25Z"/>
    <polygon points="171.46 27.48 167.24 27.48 167.24 20.44 170.94 20.44 170.94 17.51 167.24 17.51 167.24 11.49 164.11 11.49 164.11 17.51 160.43 17.51 160.43 20.44 164.11 20.44 164.11 27.48 159.56 27.48 159.56 30.45 171.46 30.45 171.46 27.48"/>
    <path d="M193.24,25.97l-1.9-2.1-.48.42v-5.85c.75.44,1.5.81,2.23,1.12.52-.89,1.21-1.96,1.91-2.71-2.98-.96-6.47-3.56-8.45-5.79h-3.33c-1.58,2.16-4.95,4.7-8.39,6.08.6.58,1.35,1.73,1.75,2.41.75-.33,1.5-.71,2.23-1.12v9.49c-.87.06-1.67.08-2.35.12l.53,2.71c1.94-.17,5.65-.44,8.5-.75l-.02-2.16c1.77,1.66,4.12,2.71,7.26,3.2.37-.81,1.17-2.02,1.81-2.64-1.52-.15-2.87-.42-4.04-.79.94-.5,2.07-1.21,2.73-1.65ZM184.8,13.82c.54.62,3.6,3.12,4.41,3.64h-2.89s0-1.93,0-1.95h-3.13s0,1.95,0,1.95h-2.75c1.77-1.14,3.33-2.43,4.35-3.64ZM187.8,19.71v.6h-5.99v-.6h5.99ZM181.81,27.77v-2.41h1.69c.5.83,1.04,1.56,1.69,2.21l-3.37.21ZM181.81,23.11v-.73h5.99v.73h-5.99ZM187.82,26.35c-.46-.29-.85-.62-1.19-1h2.77c-.52.35-1.08.71-1.58,1Z"/>
  </g>
  <g>
    <rect x="49.01" y="24.41" width="4" height="3.19" style="fill: #00b1b2;"/>
    <g>
      <path d="M15.86,50.01h26.3c6,0,10.86-4.86,10.86-10.86v-8.04h-4v5.59c0,5.14-4.17,9.31-9.31,9.31h-21.4c-5.14,0-9.31-4.17-9.31-9.31V15.3c0-5.14,4.17-9.31,9.31-9.31h21.4c5.14,0,9.31,4.17,9.31,9.31v5.59h4v-8.04c0-6-4.86-10.86-10.86-10.86H15.86c-6,0-10.86,4.86-10.86,10.86v26.3c0,6,4.86,10.86,10.86,10.86Z" style="fill: #00b1b2;"/>
      <path d="M41.14,24.41v-3.52h4.49v-3.75c0-4.28-3.47-7.75-7.75-7.75h-17.72c-4.28,0-7.75,3.47-7.75,7.75v17.72c0,4.28,3.47,7.75,7.75,7.75h17.72c4.28,0,7.76-3.47,7.76-7.75v-3.75h-4.49v-3.52h4.49v-3.19h-4.49ZM25.9,31.36h-2.76c1.27-2.21.67-4.47,0-6.76h2.76c.64,2.31,1.21,4.52,0,6.76ZM30.93,30.13c-.06.23-.45,1.23-.62,1.23h-2.68c1.36-2.21.71-4.48.04-6.76-.26-.89-.52-1.79-.66-2.68-.19-1.32-.12-2.63.53-3.93.03-.05.05-.1.07-.15h2.76c-1.13,1.98-.79,4.01-.21,6.05.6,2.06,1.37,4.09.77,6.24ZM34.88,24.6h-2.76c-.62-2.3-1.2-4.53,0-6.76h2.76c-1.26,2.21-.7,4.48,0,6.76Z" style="fill: #ea5514;"/>
      <path d="M27.61,17.85s-.05.1-.07.15c.06-.1.1-.15.1-.15h-.02Z" style="fill: #e4007f;"/>
      <g>
        <path d="M53.02,24.41v-3.52h-4v-5.59c0-5.14-4.17-9.31-9.31-9.31h-21.4c-5.14,0-9.31,4.17-9.31,9.31v21.4c0,5.14,4.17,9.31,9.31,9.31h21.4c5.14,0,9.31-4.17,9.31-9.31v-5.59h4v-3.52h-4v-3.19h4ZM45.62,27.59h-4.49v3.52h4.49v3.75c0,4.28-3.47,7.76-7.75,7.76h-17.72c-4.28,0-7.75-3.47-7.75-7.76v-17.72c0-4.28,3.47-7.75,7.75-7.75h17.72c4.28,0,7.76,3.47,7.76,7.75v3.75h-4.49v3.52h4.49v3.19Z" style="fill: #fff;"/>
        <path d="M23.14,24.6c.67,2.28,1.27,4.55,0,6.76h2.76c1.21-2.23.64-4.45,0-6.76h-2.76Z" style="fill: #fff;"/>
        <path d="M32.11,17.85c-1.2,2.22-.62,4.45,0,6.76h2.76c-.7-2.27-1.26-4.55,0-6.76h-2.76Z" style="fill: #fff;"/>
        <path d="M30.37,17.85h-2.74s-.04.05-.1.15c-.65,1.3-.72,2.61-.53,3.93.14.9.4,1.79.66,2.68.67,2.28,1.32,4.54-.04,6.76h2.68c.17,0,.55-1,.62-1.23.61-2.15-.16-4.18-.77-6.24-.58-2.04-.92-4.07.21-6.05Z" style="fill: #fff;"/>
      </g>
    </g>
  </g>
</svg>