<?xml version="1.0" encoding="UTF-8"?>
<svg id="_レイヤー_2" xmlns="http://www.w3.org/2000/svg" version="1.1" viewBox="0 0 515.9 493.6">
  <!-- Generator: Adobe Illustrator 29.3.0, SVG Export Plug-In . SVG Version: 2.1.0 Build 146)  -->
  <defs>
    <style>
      .st0 {
        fill: #595959;
      }
    </style>
  </defs>
  <path class="st0" d="M515.9,213.6c0-.2,0-.5,0-.7,0-.8-.1-1.7-.2-2.5-.1-.8-.2-1.7-.4-2.5,0-.2,0-.5-.1-.7l-51.7-189.1C460.4,7.4,450.7,0,439.7,0H76.2C65.2,0,55.5,7.4,52.6,18L.9,207.2c0,.2,0,.5-.1.7-.2.8-.3,1.7-.4,2.5-.1.8-.2,1.7-.2,2.5,0,.2,0,.5,0,.7,0,32.1,15.9,60.1,39.7,75.8v179.7c0,13.5,11,24.5,24.5,24.5h387.5c13.5,0,24.5-11,24.5-24.5v-179.7c23.8-15.7,39.7-43.7,39.7-75.8h0ZM466.8,216.5c-1.2,20.7-15.9,37.1-33.7,37.1s-33.9-17.9-33.9-40-.1-1.1-.2-1.6c0-.6,0-1.1,0-1.7l-22.1-161.3h44.1l45.8,167.4h0ZM199.6,253.6c-18.3,0-33.2-17.3-33.8-38.7l22.7-165.9h45v164.6c0,22-15.2,40-33.9,40h0ZM282.4,49h45l22.7,165.9c-.6,21.5-15.5,38.7-33.8,38.7s-33.9-17.9-33.9-40V49ZM94.9,49h44.1l-22.1,161.3c0,.6,0,1.1,0,1.7s-.2,1.1-.2,1.6c0,22-15.2,40-33.9,40s-32.5-16.4-33.7-37.1L94.9,49ZM88.7,302.3c20.4-1.5,38.8-11,52.5-25.6,9.4,10,20.9,17.6,33.9,21.9v146h-86.4v-142.3h0ZM224.1,444.6v-146c12.9-4.3,24.5-11.9,33.9-21.9,15,16,35.6,25.9,58.4,25.9s43.4-9.9,58.4-25.9c13.7,14.6,32.1,24,52.5,25.6v142.3h-203.1Z"/>
</svg>