<?xml version="1.0" encoding="UTF-8"?><svg id="_レイヤー_2" xmlns="http://www.w3.org/2000/svg" width="182mm" height="174.13mm" viewBox="0 0 515.91 493.59"><defs><style>.cls-1{fill:#fff;}</style></defs><path class="cls-1" d="M515.91,213.61c0-.25-.07-.49-.07-.74-.03-.83-.14-1.66-.25-2.5-.11-.85-.22-1.69-.42-2.5-.06-.24-.05-.48-.12-.72l-51.72-189.11c-2.91-10.65-12.59-18.04-23.63-18.04H76.22c-11.04,0-20.72,7.39-23.63,18.04L.87,207.15c-.07.24-.06.48-.12.72-.2.82-.31,1.66-.42,2.5-.11.84-.23,1.67-.25,2.5,0,.25-.07.48-.07.74,0,32.07,15.93,60.15,39.69,75.81v179.67c0,13.53,10.97,24.5,24.5,24.5h387.53c13.53,0,24.5-10.97,24.5-24.5v-179.67c23.76-15.66,39.69-43.74,39.69-75.81ZM466.79,216.45c-1.24,20.72-15.88,37.14-33.74,37.14s-33.87-17.94-33.87-39.99c0-.57-.13-1.1-.17-1.65-.04-.56.02-1.1-.06-1.67l-22.06-161.29h44.1l45.8,167.45ZM199.59,253.6c-18.31,0-33.23-17.26-33.8-38.72l22.68-165.88h44.99v164.61c0,22.05-15.19,39.99-33.87,39.99ZM282.45,49h44.99l22.68,165.88c-.57,21.46-15.5,38.72-33.8,38.72s-33.87-17.94-33.87-39.99V49ZM94.92,49h44.1l-22.06,161.29c-.08.56-.02,1.11-.06,1.67-.04.56-.17,1.09-.17,1.65,0,22.05-15.19,39.99-33.87,39.99s-32.5-16.42-33.74-37.14L94.92,49ZM88.69,302.28c20.42-1.54,38.85-10.96,52.54-25.56,9.37,9.99,20.94,17.6,33.86,21.91v145.96h-86.4v-142.3ZM224.09,444.59v-145.96c12.92-4.3,24.49-11.91,33.87-21.91,14.99,15.99,35.62,25.88,58.37,25.88s43.37-9.89,58.36-25.88c13.7,14.6,32.12,24.03,52.54,25.56v142.3h-203.13Z"/></svg>