<?xml version="1.0" encoding="UTF-8"?><svg id="_レイヤー_2" xmlns="http://www.w3.org/2000/svg" width="124.08" height="72.98" viewBox="0 0 124.08 72.98"><defs><style>.cls-1{fill:red;}.cls-2{fill:#62b502;}</style></defs><g id="_レイヤー_1-2"><path class="cls-1" d="M26.73,42.74c4.57-9.3,6.77-23.75-.22-27.79-1.68-.97-8.96-1.98-11.45-.26-5.09,3.51-4.76,9.63-4.22,14.93-3.06,5.9-3.83,14.96-2.75,19.63-3.05,3.89-10.51,21.38-7.3,23.47,3.37,2.2,25.95-9.96,25.95-29.98Z"/><path class="cls-2" d="M24.31,13.09c.19-2.83.33-8.46-5.08-12.71-1.74-1.36-4.2,1.18-2.45,2.81,4.31,4,3.4,7.68,2.8,9.66-1.85.17-2.89,2.16-2.17,3,1.4,1.64,6.77,1.8,8.31.62.99-.76.41-2.8-1.41-3.38Z"/><path class="cls-1" d="M73.28,42.74c4.57-9.3,6.77-23.75-.22-27.79-1.69-.97-8.96-1.98-11.45-.26-5.09,3.51-4.76,9.63-4.22,14.93-3.06,5.9-3.83,14.96-2.75,19.63-3.05,3.89-10.51,21.38-7.3,23.47,3.37,2.2,25.95-9.96,25.95-29.98Z"/><path class="cls-2" d="M70.86,13.09c.19-2.83.33-8.46-5.08-12.71-1.74-1.36-4.2,1.18-2.45,2.81,4.31,4,3.4,7.68,2.8,9.66-1.85.17-2.89,2.16-2.17,3,1.4,1.64,6.76,1.8,8.31.62.99-.76.41-2.8-1.41-3.38Z"/><path class="cls-1" d="M119.82,42.74c4.57-9.3,6.77-23.75-.22-27.79-1.69-.97-8.96-1.98-11.45-.26-5.09,3.51-4.76,9.63-4.22,14.93-3.06,5.9-3.83,14.96-2.75,19.63-3.05,3.89-10.51,21.38-7.3,23.47,3.37,2.2,25.94-9.96,25.94-29.98Z"/><path class="cls-2" d="M117.4,13.09c.19-2.83.33-8.46-5.08-12.71-1.74-1.36-4.2,1.18-2.45,2.81,4.31,4,3.4,7.68,2.8,9.66-1.85.17-2.89,2.16-2.17,3,1.4,1.64,6.76,1.8,8.31.62.99-.76.41-2.8-1.41-3.38Z"/></g></svg>